# xmcd
#
# Track frame offsets:
#	150
#	16849
#	37201
#	48154
#	73266
#	91588
#	121380
#	138297
#	155895
#	178223
#	199672
#	216185
#	231259
#	254836
#	276704
#	288249
#
# Disc length: 4436 seconds
#
# Revision: 1
# Processed by: cddbd v1.5.1PL0 Copyright (c) Steve Scherf et al.
# Submitted via: audiograbber 1.83.01
#
DISCID=fc115210
DTITLE=MIck Martin and the Blues Rockers - Blues Rock, USA - Disc 2
DYEAR=1900
DGENRE=Blues
TTITLE0=Got To Play the Blues
TTITLE1=Blues All Night
TTITLE2=Backseat Boogie
TTITLE3=Takin' My Time
TTITLE4=I Can't Get Enough
TTITLE5=Pick Up Baby
TTITLE6=Baby's Coming Home for Christmas
TTITLE7=Find That Girl
TTITLE8=High-Heel Baby
TTITLE9=Wonderful World
TTITLE10=Watch What You're Doin'
TTITLE11=I Don't Play Games
TTITLE12=Your Lies
TTITLE13=Stop Breakin' My Heart
TTITLE14=Clean and Mean
TTITLE15=Losin' You
EXTD=
EXTT0=
EXTT1=
EXTT2=
EXTT3=
EXTT4=
EXTT5=
EXTT6=
EXTT7=
EXTT8=
EXTT9=
EXTT10=
EXTT11=
EXTT12=
EXTT13=
EXTT14=
EXTT15=
PLAYORDER=
